<svg xmlns="http://www.w3.org/2000/svg" width="448" height="451" fill="none" xmlns:v="https://vecta.io/nano"><style><![CDATA[.B{fill:#2c2c2c}.C{fill:#003585}.D{fill-rule:evenodd}.E{fill:#fcaa72}.F{fill:#ff3f55}]]></style><g class="D"><path d="M240.6 127.476c5.75 6.738 5.026 18.882 1.566 26.466-4.87 10.67-13.8 12.673-24.423 11.248-5.9-.787-5.835 8.755 0 9.537 14.357 1.924 26.793-2.842 32.973-17 5.03-11.518 4.8-27.196-3.57-36.995-3.94-4.62-10.465 2.147-6.545 6.743zm-7.296 195.16c3.283-5.546 16.524-28.163 17.167-33.168.66-5.15-10.317-26.397-12.497-30.556l-4.5-11.357-20.117 9.227s-1.754.082.573 1.547c2.093 1.32 16.7 21.96 21.384 30.253-2.334 3.622-4.886 7.423-7 11.024-4.204 7.156-5.54 16.827-5.37 21.698s-3.3 12.8-5.327 16.897c-2.613 5.312 2.107 5.624 7.623 8.4 8.085 4.082 7.215 2.104 7.6.997s-3.514-3.973-6.013-5.5-1.824-2.64-1.824-2.64l8.304-16.83z" class="E"/><path d="M204.43 150.507c.562-1.65 1.453-3.213 2.582-4.58.7-.833 2.388-1.927 3.33-3.11-1.198-.32-1.44-2.22.054-2.513l.76-.14c.46-.714-.583-.614 0 0 3.643-2.343 6.54-.166 8.042 1.476 2.774 3.032-.966 5.663.736 8.768.752 1.374 2.352 2.03 3.055 3.584a7.72 7.72 0 0 1 .649 3.845c-.28 3.273-2.715 6.786-5.648 8.527-1.94 1.15-4.677 3.86-7.134 4.1-2.148.2-10.182-1.99-10.684-3.025-1.25-2.57-1.897-6.7-3.807-8.666-2.03-2.08 7.2-5.74 8.067-8.256z" class="B"/><path d="M198.23 350.878c.74 2.866.26 8.67.05 12.077.158.422.43.813.94 1.158.733.495 1.865.66 2.71.82 2.077.39 4.2.402 6.292.35 1.384-.035 2.846 0 4.3-.026 3.335-.57 3.858-2.828 2.87-3.19-3.862-1.422-9.85-2.342-9.85-2.342l6.357-52.653c1.01-3.122 1.723-45.182 1.723-45.182l-23.486 3.903s8.38 21.765 8.885 31.39-4.592 12.582-5.097 24.8 3.283 24.98 4.294 28.883z" class="E"/><path d="M213.845 163.82s-16.955-.305-21.418 3.68-11.628 7.546-1.075 29.785c8.682 18.296 12.628 21.142 2.563 37.947-6.92 11.552-8.435 27.794-.16 43.423l44.592-20.365s-5.465-27.05-9.63-41.45-3.272-26.046-.893-30.95-9.83-22.12-13.98-22.068z" fill="#20c3f3"/><path d="M209.32 360.423s2.736.592 2.175 1.624-9.197 1.498-11.195 1.028l-2-.467s-.565 1.627.687 2.272 11.63 1.1 14.444.425 4-3.182 1.688-4.097c-2.252-.897-5.8-.785-5.8-.785zm19.102-17.283s1.655 1.2 1.095 1.95-3.367.53-8.698-2.373c-3.876-2.1-3.876-2.787-3.876-2.787s-1.6 1.708-.185 2.88c1.055.88 14 6.92 15.25 6.972s1.794-2.45-.038-4.145-3.548-2.5-3.548-2.5z" class="B"/><g class="E"><path d="M216.1 153.336c.605 5.076-1.573 9.566-8.198 9.22-3.93-.205-5.347-4.236-4.987-10.136.308-5.036 3.443-10.335 7.8-9.415 3.94.832 4.78 5.254 5.384 10.332z"/><path d="M209.53 160.505l.042 5.15s-1.257 1.458-5.322.256c-.446-.13-.687-9.033-.687-9.033l5.967 3.628z"/><path d="M208.183 163.265l4.015.465s4.478 8.767-3.6 9.033-18.377-7.168-13.786-8.32 13.37-1.178 13.37-1.178zm-18.987 5.25c-11 6.573-20.828 16.87-15.983 31 4.603 13.428 22.57 24.4 35.977 24.388 5.972-.005 5.785-9.54-.17-9.537-8.667.01-19.807-6.822-24.736-14.058-7.4-10.86.803-18.326 9.725-23.657 5.155-3.08.34-11.226-4.814-8.145z"/></g><path d="M192.185 146.42c2.922-3.235 6.728-5.666 11.028-6.965 2.966-.897 8.26-2.044 9.428 1.752.072.23.048.427-.01.604.675 2.976.554 5.79-2.383 7.683-1.445.928-3.644 1.443-4.404 3.012-.985 2.04 1.34 4.23 1.995 6.154 1.126 3.3-.867 5.142-3.787 6.542-.802.385-1.97.81-2.297 1.682-.415 1.1.465 2.43.853 3.44.522 1.352.823 2.753.132 4.107-1.437 2.822-5.5 3.21-8.322 2.34-3.642-1.127-6.05-4.157-7.196-7.485-2.62-7.614-.516-16.807 4.962-22.866z" class="B"/><path d="M39.928 225.604c.576 3.7-.873 5.597-.382 9.278.12.838.236 1.443-.044 1.872-.518.793-1.915.5-2.082-1.142 0 0-.072-2.756-1.22-1.967-.56.38-1.35 1.28.01 5.895l1.12 3.304c.256.797-.03 1.55-.574 1.624s-.997-.252-1.285-.992l-1.964-4.866c-.007-.015-.274-.577-.442-.53-.16.044-.118.503-.112.556.386 2.672 1.787 6.764 1.787 6.764.323 1.182-.223 1.7-.768 1.764s-.8-.343-1.065-1.065c0 0-1.006-2.495-2.03-6.616v.002s-.34-1.028-.426.12c.32 3.017 1 5.248 1 5.248.323.767.1 1.443-.54 1.737-.516.24-.955-.245-1.258-1.005 0 0-.96-3.085-1.243-6.572h-.002s-.168-.904-.417-.117c-.527 2.04.185 3.867.185 3.867.475 1.2-.065 1.637-.6 1.7s-.783-.327-1.065-1.065c0 0-.734-1.867-.53-4.373v-.002s-.285-8.823 3.546-12.516 9.843-4.614 10.42-.912zm107.18-115.724c-3.715-.14-5.284-1.936-8.96-2.157-.84-.04-1.45-.042-1.814-.4-.674-.665-.12-2 1.508-1.842 0 0 2.7.457 2.15-.83-.263-.628-.986-1.582-5.74-1.12l-3.43.477c-.826.1-1.506-.33-1.473-.88s.435-.94 1.212-1.082l5.114-1.012c.016-.003.614-.16.6-.334-.012-.168-.467-.214-.518-.217-2.676-.13-6.93.47-6.93.47-1.214.095-1.605-.544-1.57-1.096s.484-.716 1.24-.85c0 0 2.624-.515 6.832-.74h-.002s1.063-.14-.037-.446c-2.998-.26-5.298-.024-5.298-.024-.808.172-1.42-.188-1.587-.87-.134-.557.422-.897 1.217-1.05 0 0 3.2-.358 6.64.03v-.002s.913.007.192-.4c-1.883-.912-3.8-.557-3.8-.557-1.25.24-1.582-.378-1.547-.932s.47-.7 1.24-.85c0 0 1.96-.37 4.36.314h.001s8.644 1.4 11.505 5.907 2.607 10.622-1.107 10.483z" fill="#fdbc90"/><path d="M125.047 439.106s15.623 3.5 15.53 6.616-27.822 2.066-31.23-.946-1.57-7.66.652-7.68 15.05 2 15.05 2zm-60.307-.528s13.68 5.77 13.1 8.536-25.67-2.872-28.298-6.14-.22-7.098 1.807-6.742 13.4 4.346 13.4 4.346z" class="B"/><path d="M134.606 236.74s26.927 84.148 19.932 104.886c-3.002 8.9-26.877 94.262-29.412 97.838-2.802 3.953-18.018 1.482-17.318-2.663.66-3.898 21.797-90.883 21.797-95.584s-17.11-81.75-21.52-69.044c-3.92 11.292 6.16 60.466 5.277 74.125-.995 15.38-46.158 87.464-49.48 92.012-3.733 5.107-17.176 2.85-14.935-3.36 1.232-3.418 34.057-84.762 35.628-91.217.34-1.4-20.27-66.68-15.22-100.415 2.165-14.456 18.62-13.16 65.25-6.577z" class="C"/><path d="M169.914 113.683c-8.79-11.855-22.65-15.492-22.65-15.492l-4.03 10.856s20.24 7.418 11.96 21.332-22.08 16.692-43.24 21.33-81.882 12.058-82.803 65.85l10.45 7.575s1.03-6.888 2.36-12.1c2.392-8.204 8.01-20.022 21.127-27.426 1.13-.595 2.198-1.107 3.19-1.492.355-.13.712-.265 1.067-.37.207-.064.408-.12.605-.17.09-.024.183-.038.274-.06 5.202-1.133 7.714 2.955 6.01 20.14-2.76 27.824-5.652 37.003-1.973 41.64s24.872 7.995 39.594 6.14 23.106-7.708 23.102-15.318c-.013-17.622-6.442-62.14 12.878-73.27s35.347-31.265 22.08-49.155z" fill="#c4ebe4"/><path d="M120.2 136.118c-.054-6.888-15.94-6.464-18.414-6.607s-2.865 10.496-2.865 10.496l.24.65c-.946 2.83-.112 7.312-.006 9.507.196 4.023 9.452 8.785 12.905 8.158 2.014-.365 3.396-1.7 4.35-3.443 2.057-2.457 3.845-11.873 3.79-18.762z" fill="#fdbc90"/><path d="M123.703 130.282c-1.435-3.425-6.434-4.88-9.73-5.274-2.362-.283-4.714-.13-7.027.292 0 0-5.474.764-7.126 4.048a48.83 48.83 0 0 0-1.381 6.006 42.88 42.88 0 0 0-.478 5.84c-.024 1.85-.176 4.115.417 5.893.323.966 1.272 1.987 2.33 1.295 1.092-.714.708-2.698.534-3.977-.146-.422-.23-.866-.337-1.317-.197-.835-.716-1.4-1.06-2.146-.493-1.078-.214-2.42.747-3.15.737-.56 1.66-.47 2.073.223.175.2.248.698.28.904.3 1.807-.408 3.89-.557 5.7-.092 1.13.3 2.46 1.69 2.344 1.3-.108 1.792-1.45 1.897-2.563.292-3.1-2.59-7.615.866-9.727 3.628-2.214 8.03.9 11.85.902 2.743.004 6.386-2.01 5-5.293z" class="B"/><path d="M31.277 215.42l-2.126 2.14.067 9.367s4.677 2.45 10.383-1.794l-8.324-9.712z" fill="#bfe9e9"/><path d="M116.425 126.87s-2.26 1.9-8.038 2.026-6.03-1.392-6.03-1.392 2.64-24.687 3.14-24.687 10.926 24.053 10.926 24.053z" fill="#00c4f5"/></g><mask id="A" mask-type="alpha" maskUnits="userSpaceOnUse" x="321" y="439" width="26" height="12"><path d="M321.473 439.377h24.63v10.634h-24.63v-10.634z" fill="#fff" class="D"/></mask><g mask="url(#A)" class="B D"><path d="M335.034 442.233s11.468 4.15 11.058 6.77-21.33-.392-23.587-3.194-.355-6.58 1.332-6.428 11.197 2.85 11.197 2.85z"/></g><path d="M292.267 437.848s-11.47 4.15-11.06 6.774 21.33-.395 23.587-3.197.355-6.58-1.332-6.428-11.196 2.85-11.196 2.85z" class="B"/><path d="M366.16 359.667c1.84-15.534-3.91-91.384-9.724-120.523l-64.347-12.074s-23.556 76.226-27.23 96.593c-2.283 12.66 17.238 73.603 22.567 93.954s6.177 20.003 6.933 21.9 11.05-1.56 10.382-4.336-16.725-97.952-15.393-101.653 18.55-48.76 23.877-52.46 9.327 3.7 12.656 12.025 18.714 56.4 17.38 63.8-21.094 80.734-20.536 82.922 9.63 6.65 10.96 2.95 31.694-76.533 32.472-83.1z" class="C"/><path d="M310.85 141.7c-.668-2.965-1.658-8.807-1.9-11.842-1.406-17.05 16.644-38.976 16.644-38.976l-.165-.133c.723-.497 2.477-1.8 2.98-3.118.636-1.67.763-9-.894-8.474s-.9 4.1-2.036 3.98-6.35-6.76-8.024-8.73c-1.53-1.797-4.648-2.88-3.568 1.542 1.16 4.746 6.536 8.24 5.35 9.5 0 0-18.122 16.036-23.344 31.926-2.566 7.802-1.17 19.622.774 28.795 4.78-1.67 9.223-3.46 14.193-4.47zm49.518-1.35c-.3 1.55-1.566 5.528-2.062 6.985 5.047 3.672 9.823 7.652 14.687 11.56l2.07-6.203c8.25-26.5-11.144-68.152-12.244-69.74 0 0-2.914-3.77-.777-4.846s12.167-8.07 10.672-9.362-9.072 2.7-9.072 2.7-5.23 3.768-4.804 1.724-.328-3.195-1.92-2.046c-1.895 1.37-4.67 6.753-4.572 9.073 0 0 11.08 43.93 8.024 60.166z" fill="#fee1cd"/><path d="M372.973 158.946c-4.893-3.92-9.698-7.955-14.756-11.663-5.358 12.47-17.7 20.674-27.524 19.322-8.984-1.235-16.262-12.22-19.74-25.25-4.985 1.02-9.692 2.935-14.49 4.608 2.617 11.084 6.875 22.074 9.48 30.7 4.95 16.423-14.918 45.12-16.538 56.573 0 0-1.892 3.904 20.535 11.712s46.972 16.12 48.592 11.433c7.7-18.544 2.5-69.673 1.94-73.38-.504-3.392 5.215-3.783 12.5-24.063z" fill="#ff7988"/><path d="M327.633 149.47c-.466 1.66-.265 3.053.676 4.52.935 1.455.333 3.614-1.02 4.5-1.476.964-3.258.37-4.196-1.093-1.772-2.765-2.278-6.34-1.377-9.55.476-1.692 2.07-2.8 3.716-2.36 1.55.425 2.678 2.285 2.2 3.985z" class="B"/><path d="M322.725 158.377c-1.332 7.274 4.1 11.502 9.01 12.538s9.142-3.138 9.342-11.71c.172-7.317-3.217-15.332-8.854-14.494-5.094.758-8.163 6.393-9.497 13.667z" fill="#fee1cd"/><path d="M316.578 139.904c1.108-10.04 15.814-10.953 22.8-9.787 8.977 1.494 20.295 8.4 21.163 19.187.922 11.502-9.75 17.02-18.677 18.36-.99.148-1.717-.18-2.2-.743-.906.802-2.126.445-2.738-1.228-.584-1.59-.042-3.323.426-4.846 0 0 1.748-3.708.286-5.224s-3.72-.566-3.758 1.474c.085-.393-.316 1.954-.345 2.013-.996 1.88-2.683.773-2.73-1.178-.025-1.01.415-1.87.595-2.833.254-1.376-.087-2.304-.73-2.912l-1.697-.17c-1.704-.2-3.384-.52-4.985-1.138-.7-.215-1.34-.5-1.9-.904-3.39-2.01-5.996-5.692-5.513-10.072z" class="B"/><path d="M333.602 132.503L346 111.145c.497-.75 1.365 26.103.993 26.478s-4.213 1.25-8.797-.625-4.584-4.495-4.584-4.495z" fill="#ff7988"/><path d="M78.952 56.488s-7.888 31.32-6.795 30.84 22.886-22.263 22.886-22.263l-16.09-8.578z" class="F"/><path d="M113.257 70.532s1.36 28.05 2.256 27.92 14.728-26.1 14.728-26.1l-16.984-1.8z" fill="#ffd200"/><path d="M152.296 72.455c.148.546 13.068 28.682 14.377 27.498s5.28-29.13 4.205-29.007-18.582 1.51-18.582 1.51z" class="C"/><path d="M193.134 67.302s16.207 26.52 16.61 25.646 2.676-30.344 1.395-29.698-18.006 4.05-18.006 4.05z" class="F"/><path d="M233.527 57.104c.533.03 18.7 26.296 18.273 24.48s1.884-32.182.95-31.334-19.222 6.855-19.222 6.855z" fill="#ffd200"/><path d="M275.07 40.077s17.133 25.85 17.88 25.175-2.008-32.57-2.008-32.57l-15.872 7.396z" class="C"/><path d="M309.992 24.277s23.975 22.223 23.676 21.006c-2.645-10.763-5.673-31.696-5.673-31.696l-18.003 10.7z" class="F"/><path d="M131.966 73.1c-44.72-2.407-58.297-20.36-59.02-21.364-.312-.433-.218-1.038.2-1.352s1.027-.223 1.34.212c.232.318 24.09 31.557 111.846 16.8C274.622 52.555 345.414.71 346.12.19c.426-.316 1.03-.227 1.343.206a.97.97 0 0 1-.205 1.354c-.708.524-71.852 52.637-160.598 67.56-22.006 3.7-40.028 4.583-54.693 3.792z" class="C"/><path d="M439.12 219.004l-1.64.647c-12.478 6.192-37.788 19.99-50.038 26.627-1.38.747-2.58 1.708-3.69 2.753.54 1.59 1.116 3.165 1.814 4.712 2.537 5.614 5.39 11.108 8.248 16.56l3.372 6.216c1.3-.25 2.604-.623 3.824-1.286L448 250.187c-1.82-10.806-4.522-21.653-8.88-31.183z" fill="#a3ce71"/><path d="M32.004 330.865l-2.464-1.544c-1.462-.968-.158-.03-.915-.723a39.3 39.3 0 0 1-3.932-4.192C18.174 327.64 11.73 331 5.55 334.828c.513 1.825 1.413 3.593 2.66 5.175 5.858 7.44 25.013 15.552 33.9 18.002 5.036-6.42 10.044-12.95 13.375-20.097l-23.48-7.043zm235.518-222.478c-.675.005-1.377.07-2.125.278-5.215 1.444-19.976 2.663-25.158 1.125a8.21 8.21 0 0 0-1.593-.305c-1.247 5-1.553 10.176-2.115 15.322 7.64 2.24 25.38.87 33.046-1.252.792-.22 1.457-.55 2.066-.922-1.136-4.826-2.276-9.643-4.12-14.246z" fill="#72904f"/><path d="M281.897 117.75a9.04 9.04 0 0 0-2.145-2.272c-9.015-6.693-19.253-11.093-30.173-13.267l-4.762 12.08c-.563 1.4-1.266 2.867-1.97 4.35a9.42 9.42 0 0 0 1.765.462c9 1.428 17.228 5.02 24.58 10.392 4.144-4.015 8.57-7.75 12.704-11.746zM47.08 286.165c-.998-.012-2.035.06-3.142.342-7.74 1.958-29.547 3.266-37.14.822a12.19 12.19 0 0 0-2.339-.502c-2 7.335-2.622 14.956-3.617 22.526 11.193 3.56 37.4 2.124 48.77-.753 1.178-.296 2.17-.76 3.08-1.3-1.517-7.153-3.044-14.295-5.612-21.144zm193.02 120.35c-.888-.245-1.83-.42-2.885-.428-7.36-.058-27.132-3.973-33.352-7.924a11.17 11.17 0 0 0-1.974-.994c-3.468 6.083-5.77 12.743-8.397 19.273 9.178 5.785 32.907 10.613 43.723 10.697 1.12.01 2.113-.175 3.046-.435.286-6.743.562-13.477-.16-20.2z" fill="#a3ce71"/></svg>